<?xml version="1.0" standalone="no"?><!-- Generator: Gravit.io --><svg xmlns="http://www.w3.org/2000/svg" xmlns:xlink="http://www.w3.org/1999/xlink" style="isolation:isolate" viewBox="0 0 547.6 310.35" width="547.6" height="310.35"><defs><clipPath id="_clipPath_UWzzaioe1rQTjQrPsuLwIlWEgl3T0pb2"><rect width="547.6" height="310.35"/></clipPath></defs><g clip-path="url(#_clipPath_UWzzaioe1rQTjQrPsuLwIlWEgl3T0pb2)"><g><path d=" M 180.175 308.837 L 546.009 308.837 L 546.009 1.5 L 180.175 1.5" fill-rule="evenodd" fill="rgb(54,57,62)"/><path d=" M 49.33 308.837 L 180.175 308.837 L 180.175 1.749 L 49.33 1.749" fill-rule="evenodd" fill="rgb(46,49,54)"/><path d=" M 89.085 84.29 L 64.626 84.29 C 63.24 84.29 62.116 83.167 62.116 81.781 L 62.116 76.766 C 62.116 75.381 63.24 74.258 64.626 74.258 L 89.085 74.258 C 90.471 74.258 91.594 75.381 91.594 76.766 L 91.594 81.781 C 91.594 83.167 90.471 84.29 89.085 84.29 Z  M 140.035 84.29 L 100.576 84.29 C 99.19 84.29 98.067 83.167 98.067 81.781 L 98.067 76.766 C 98.067 75.381 99.19 74.258 100.576 74.258 L 140.035 74.258 C 141.421 74.258 142.545 75.381 142.545 76.766 L 142.545 81.781 C 142.545 83.167 141.421 84.29 140.035 84.29 Z " fill-rule="evenodd" fill="rgb(85,90,97)"/><path d=" M 51.435 60.181 L 180.175 60.181 L 180.175 37.693 L 51.435 37.693" fill-rule="evenodd" fill="rgb(44,47,54)"/><path d=" M 124.859 54.106 L 86.15 54.106 C 84.764 54.106 83.641 52.983 83.641 51.598 L 83.641 46.582 C 83.641 45.197 84.764 44.074 86.15 44.074 L 124.859 44.074 C 126.245 44.074 127.369 45.197 127.369 46.582 L 127.369 51.598 C 127.369 52.983 126.245 54.106 124.859 54.106 Z " fill-rule="evenodd" fill="rgb(85,90,97)"/><path d=" M 50.354 60.181 L 52.515 60.181 L 52.515 37.693 L 50.354 37.693" fill-rule="evenodd" fill="rgb(135,139,151)"/><path d=" M 49.33 308.837 L 180.175 308.837 L 180.175 265.764 L 49.33 265.764" fill-rule="evenodd" fill="rgb(40,43,48)"/><path d=" M 86.968 286.177 C 86.968 293.103 81.351 298.717 74.422 298.717 C 67.492 298.717 61.876 293.103 61.876 286.177 C 61.876 279.252 67.492 273.638 74.422 273.638 C 81.351 273.638 86.968 279.252 86.968 286.177" fill-rule="evenodd" fill="rgb(163,212,156)"/><path d=" M 92.99 292.447 C 92.99 295.909 90.181 298.717 86.717 298.717 C 83.253 298.717 80.444 295.909 80.444 292.447 C 80.444 288.985 83.253 286.177 86.717 286.177 C 90.181 286.177 92.99 288.985 92.99 292.447 Z " fill-rule="evenodd" fill="rgb(67,181,129)"/><path d=" M 141.928 284.923 L 101.781 284.923 C 100.395 284.923 99.271 283.8 99.271 282.415 L 99.271 279.908 C 99.271 278.522 100.395 277.4 101.781 277.4 L 141.928 277.4 C 143.314 277.4 144.438 278.522 144.438 279.908 L 144.438 282.415 C 144.438 283.8 143.314 284.923 141.928 284.923 Z " fill-rule="evenodd" fill="rgb(135,139,151)"/><path d=" M 123.109 294.824 L 101.78 294.824 C 100.394 294.824 99.271 293.701 99.271 292.316 L 99.271 291.062 C 99.271 289.677 100.394 288.554 101.78 288.554 L 123.109 288.554 C 124.495 288.554 125.618 289.677 125.618 291.062 L 125.618 292.316 C 125.618 293.701 124.495 294.824 123.109 294.824 Z  M 164.151 24.496 L 64.629 24.496 C 63.241 24.496 62.117 23.372 62.117 21.985 L 62.117 14.468 C 62.117 13.081 63.241 11.957 64.629 11.957 L 164.151 11.957 C 165.539 11.957 166.664 13.081 166.664 14.468 L 166.664 21.985 C 166.664 23.372 165.539 24.496 164.151 24.496 Z " fill-rule="evenodd" fill="rgb(85,90,97)"/><path d=" M 1.733 308.837 L 50.354 308.837 L 50.354 1.749 L 1.733 1.749" fill-rule="evenodd" fill="rgb(33,35,38)"/><path d=" M 40.6 121.832 C 40.6 130.142 33.86 136.88 25.545 136.88 C 17.23 136.88 10.489 130.142 10.489 121.832 C 10.489 113.522 17.23 106.785 25.545 106.785 C 33.86 106.785 40.6 113.522 40.6 121.832 Z  M 28.864 9.286 C 28.864 11.119 27.378 12.604 25.545 12.604 C 23.711 12.604 22.225 11.119 22.225 9.286 C 22.225 7.454 23.711 5.969 25.545 5.969 C 27.378 5.969 28.864 7.454 28.864 9.286 Z  M 17.246 9.286 C 17.246 11.119 15.759 12.604 13.926 12.604 C 12.093 12.604 10.607 11.119 10.607 9.286 C 10.607 7.454 12.093 5.969 13.926 5.969 C 15.759 5.969 17.246 7.454 17.246 9.286 Z  M 40.483 9.286 C 40.483 11.119 38.996 12.604 37.163 12.604 C 35.33 12.604 33.844 11.119 33.844 9.286 C 33.844 7.454 35.33 5.969 37.163 5.969 C 38.996 5.969 40.483 7.454 40.483 9.286 Z  M 40.6 159.451 C 40.6 167.761 33.86 174.498 25.545 174.498 C 17.23 174.498 10.489 167.761 10.489 159.451 C 10.489 151.141 17.23 144.403 25.545 144.403 C 33.86 144.403 40.6 151.141 40.6 159.451 Z  M 40.6 84.406 C 40.6 92.716 33.86 99.453 25.545 99.453 C 17.23 99.453 10.489 92.716 10.489 84.406 C 10.489 76.096 17.23 69.358 25.545 69.358 C 33.86 69.358 40.6 76.096 40.6 84.406 Z " fill-rule="evenodd" fill="rgb(45,48,54)"/><path d=" M 40.6 197.069 C 40.6 205.379 33.86 212.116 25.545 212.116 C 17.23 212.116 10.489 205.379 10.489 197.069 C 10.489 188.759 17.23 182.021 25.545 182.021 C 33.86 182.021 40.6 188.759 40.6 197.069 Z " fill-rule="evenodd" fill="rgb(90,200,250)"/><path d=" M 38.718 61.81 L 12.371 61.81 C 11.332 61.81 10.49 60.969 10.49 59.93 C 10.49 58.891 11.332 58.049 12.371 58.049 L 38.718 58.049 C 39.758 58.049 40.6 58.891 40.6 59.93 C 40.6 60.969 39.758 61.81 38.718 61.81 Z " fill-rule="evenodd" fill="rgb(45,48,54)"/><path d=" M 245.566 24.496 L 200.201 24.496 C 198.826 24.496 197.712 23.382 197.712 22.008 L 197.712 14.445 C 197.712 13.071 198.826 11.957 200.201 11.957 L 245.566 11.957 C 246.941 11.957 248.056 13.071 248.056 14.445 L 248.056 22.008 C 248.056 23.382 246.941 24.496 245.566 24.496" fill-rule="evenodd" fill="rgb(135,139,151)"/><path d=" M 223.816 46.822 L 200.201 46.822 C 198.826 46.822 197.712 45.708 197.712 44.333 L 197.712 41.268 C 197.712 39.894 198.826 38.78 200.201 38.78 L 223.816 38.78 C 225.191 38.78 226.306 39.894 226.306 41.268 L 226.306 44.333 C 226.306 45.708 225.191 46.822 223.816 46.822 Z  M 323.066 46.822 L 299.451 46.822 C 298.076 46.822 296.962 45.708 296.962 44.333 L 296.962 41.268 C 296.962 39.894 298.076 38.78 299.451 38.78 L 323.066 38.78 C 324.441 38.78 325.556 39.894 325.556 41.268 L 325.556 44.333 C 325.556 45.708 324.441 46.822 323.066 46.822 Z  M 299.114 24.496 L 276.248 24.496 C 274.874 24.496 273.759 23.382 273.759 22.008 L 273.759 14.445 C 273.759 13.071 274.874 11.957 276.248 11.957 L 299.114 11.957 C 300.488 11.957 301.604 13.071 301.604 14.445 L 301.604 22.008 C 301.604 23.382 300.488 24.496 299.114 24.496 Z  M 336.614 24.496 L 313.748 24.496 C 312.374 24.496 311.259 23.382 311.259 22.008 L 311.259 14.445 C 311.259 13.071 312.374 11.957 313.748 11.957 L 336.614 11.957 C 337.988 11.957 339.104 13.071 339.104 14.445 L 339.104 22.008 C 339.104 23.382 337.988 24.496 336.614 24.496 Z  M 374.114 24.496 L 351.248 24.496 C 349.874 24.496 348.759 23.382 348.759 22.008 L 348.759 14.445 C 348.759 13.071 349.874 11.957 351.248 11.957 L 374.114 11.957 C 375.488 11.957 376.604 13.071 376.604 14.445 L 376.604 22.008 C 376.604 23.382 375.488 24.496 374.114 24.496 Z  M 411.614 24.496 L 388.748 24.496 C 387.374 24.496 386.259 23.382 386.259 22.008 L 386.259 14.445 C 386.259 13.071 387.374 11.957 388.748 11.957 L 411.614 11.957 C 412.988 11.957 414.104 13.071 414.104 14.445 L 414.104 22.008 C 414.104 23.382 412.988 24.496 411.614 24.496 Z " fill-rule="evenodd" fill="rgb(105,111,117)"/><path d=" M 530.947 24.496 C 527.482 24.496 524.674 21.689 524.674 18.227 C 524.674 14.764 527.482 11.957 530.947 11.957 C 534.411 11.957 537.22 14.764 537.22 18.227 C 537.22 21.689 534.411 24.496 530.947 24.496 Z " fill-rule="evenodd" fill="rgb(135,139,151)"/><path d=" M 537.168 55.836 L 189.087 55.836 C 188.466 55.836 187.962 55.333 187.962 54.712 C 187.962 54.091 188.466 53.587 189.087 53.587 L 537.168 53.587 C 537.789 53.587 538.293 54.091 538.293 54.712 C 538.293 55.333 537.789 55.836 537.168 55.836 Z  M 530.418 90.162 L 198.837 90.162 C 198.216 90.162 197.712 89.658 197.712 89.037 C 197.712 88.417 198.216 87.913 198.837 87.913 L 530.418 87.913 C 531.039 87.913 531.543 88.417 531.543 89.037 C 531.543 89.658 531.039 90.162 530.418 90.162 Z  M 260.695 76.872 L 221.986 76.872 C 220.6 76.872 219.476 75.749 219.476 74.364 L 219.476 69.348 C 219.476 67.963 220.6 66.84 221.986 66.84 L 260.695 66.84 C 262.081 66.84 263.204 67.963 263.204 69.348 L 263.204 74.364 C 263.204 75.749 262.081 76.872 260.695 76.872 Z  M 339.728 76.872 L 316.019 76.872 C 314.633 76.872 313.509 75.749 313.509 74.364 L 313.509 69.348 C 313.509 67.963 314.633 66.84 316.019 66.84 L 339.728 66.84 C 341.114 66.84 342.237 67.963 342.237 69.348 L 342.237 74.364 C 342.237 75.749 341.114 76.872 339.728 76.872 Z  M 402.955 76.872 L 349.246 76.872 C 347.86 76.872 346.737 75.749 346.737 74.364 L 346.737 69.348 C 346.737 67.963 347.86 66.84 349.246 66.84 L 402.955 66.84 C 404.341 66.84 405.465 67.963 405.465 69.348 L 405.465 74.364 C 405.465 75.749 404.341 76.872 402.955 76.872 Z  M 421.183 76.872 L 412.474 76.872 C 411.088 76.872 409.965 75.749 409.965 74.364 L 409.965 69.348 C 409.965 67.963 411.088 66.84 412.474 66.84 L 421.183 66.84 C 422.569 66.84 423.693 67.963 423.693 69.348 L 423.693 74.364 C 423.693 75.749 422.569 76.872 421.183 76.872 Z " fill-rule="evenodd" fill="rgb(105,111,117)"/><path d=" M 211.962 72.009 C 211.962 75.942 208.772 79.13 204.837 79.13 C 200.901 79.13 197.712 75.942 197.712 72.009 C 197.712 68.076 200.901 64.888 204.837 64.888 C 208.772 64.888 211.962 68.076 211.962 72.009 Z " fill-rule="evenodd" fill="rgb(230,235,244)"/><path d=" M 306.337 72.009 C 306.337 73.665 304.994 75.008 303.337 75.008 C 301.68 75.008 300.337 73.665 300.337 72.009 C 300.337 70.353 301.68 69.011 303.337 69.011 C 304.994 69.011 306.337 70.353 306.337 72.009 Z " fill-rule="evenodd" fill="rgb(67,181,129)"/><path d=" M 530.418 125.393 L 198.837 125.393 C 198.216 125.393 197.712 124.889 197.712 124.268 C 197.712 123.648 198.216 123.144 198.837 123.144 L 530.418 123.144 C 531.039 123.144 531.543 123.648 531.543 124.268 C 531.543 124.889 531.039 125.393 530.418 125.393 Z  M 272.695 112.103 L 221.986 112.103 C 220.6 112.103 219.476 110.98 219.476 109.595 L 219.476 104.579 C 219.476 103.194 220.6 102.071 221.986 102.071 L 272.695 102.071 C 274.081 102.071 275.204 103.194 275.204 104.579 L 275.204 109.595 C 275.204 110.98 274.081 112.103 272.695 112.103 Z  M 339.728 112.103 L 316.019 112.103 C 314.633 112.103 313.509 110.98 313.509 109.595 L 313.509 104.579 C 313.509 103.194 314.633 102.071 316.019 102.071 L 339.728 102.071 C 341.114 102.071 342.237 103.194 342.237 104.579 L 342.237 109.595 C 342.237 110.98 341.114 112.103 339.728 112.103 Z  M 380.455 112.103 L 349.246 112.103 C 347.86 112.103 346.737 110.98 346.737 109.595 L 346.737 104.579 C 346.737 103.194 347.86 102.071 349.246 102.071 L 380.455 102.071 C 381.841 102.071 382.965 103.194 382.965 104.579 L 382.965 109.595 C 382.965 110.98 381.841 112.103 380.455 112.103 Z  M 413.683 112.103 L 389.974 112.103 C 388.588 112.103 387.465 110.98 387.465 109.595 L 387.465 104.579 C 387.465 103.194 388.588 102.071 389.974 102.071 L 413.683 102.071 C 415.069 102.071 416.193 103.194 416.193 104.579 L 416.193 109.595 C 416.193 110.98 415.069 112.103 413.683 112.103 Z " fill-rule="evenodd" fill="rgb(105,111,117)"/><path d=" M 211.962 107.24 C 211.962 111.174 208.772 114.362 204.837 114.362 C 200.901 114.362 197.712 111.174 197.712 107.24 C 197.712 103.307 200.901 100.119 204.837 100.119 C 208.772 100.119 211.962 103.307 211.962 107.24" fill-rule="evenodd" fill="rgb(246,152,157)"/><path d=" M 306.337 107.24 C 306.337 108.896 304.994 110.239 303.337 110.239 C 301.68 110.239 300.337 108.896 300.337 107.24 C 300.337 105.585 301.68 104.242 303.337 104.242 C 304.994 104.242 306.337 105.585 306.337 107.24 Z " fill-rule="evenodd" fill="rgb(67,181,129)"/><path d=" M 530.418 160.624 L 198.837 160.624 C 198.216 160.624 197.712 160.12 197.712 159.5 C 197.712 158.879 198.216 158.375 198.837 158.375 L 530.418 158.375 C 531.039 158.375 531.543 158.879 531.543 159.5 C 531.543 160.12 531.039 160.624 530.418 160.624 Z  M 238.195 147.334 L 221.986 147.334 C 220.6 147.334 219.476 146.212 219.476 144.826 L 219.476 139.811 C 219.476 138.425 220.6 137.303 221.986 137.303 L 238.195 137.303 C 239.581 137.303 240.704 138.425 240.704 139.811 L 240.704 144.826 C 240.704 146.212 239.581 147.334 238.195 147.334 Z  M 339.728 147.334 L 316.019 147.334 C 314.633 147.334 313.509 146.212 313.509 144.826 L 313.509 139.811 C 313.509 138.425 314.633 137.303 316.019 137.303 L 339.728 137.303 C 341.114 137.303 342.237 138.425 342.237 139.811 L 342.237 144.826 C 342.237 146.212 341.114 147.334 339.728 147.334 Z  M 402.955 147.334 L 349.246 147.334 C 347.86 147.334 346.737 146.212 346.737 144.826 L 346.737 139.811 C 346.737 138.425 347.86 137.303 349.246 137.303 L 402.955 137.303 C 404.341 137.303 405.465 138.425 405.465 139.811 L 405.465 144.826 C 405.465 146.212 404.341 147.334 402.955 147.334 Z  M 421.183 147.334 L 412.474 147.334 C 411.088 147.334 409.965 146.212 409.965 144.826 L 409.965 139.811 C 409.965 138.425 411.088 137.303 412.474 137.303 L 421.183 137.303 C 422.569 137.303 423.693 138.425 423.693 139.811 L 423.693 144.826 C 423.693 146.212 422.569 147.334 421.183 147.334 Z " fill-rule="evenodd" fill="rgb(105,111,117)"/><path d=" M 211.962 142.472 C 211.962 146.405 208.772 149.593 204.837 149.593 C 200.901 149.593 197.712 146.405 197.712 142.472 C 197.712 138.539 200.901 135.351 204.837 135.351 C 208.772 135.351 211.962 138.539 211.962 142.472 Z " fill-rule="evenodd" fill="rgb(250,166,26)"/><path d=" M 306.337 142.472 C 306.337 144.128 304.994 145.47 303.337 145.47 C 301.68 145.47 300.337 144.128 300.337 142.472 C 300.337 140.816 301.68 139.473 303.337 139.473 C 304.994 139.473 306.337 140.816 306.337 142.472 Z " fill-rule="evenodd" fill="rgb(67,181,129)"/><path d=" M 530.418 195.855 L 198.837 195.855 C 198.216 195.855 197.712 195.352 197.712 194.731 C 197.712 194.11 198.216 193.607 198.837 193.607 L 530.418 193.607 C 531.039 193.607 531.543 194.11 531.543 194.731 C 531.543 195.352 531.039 195.855 530.418 195.855 Z  M 245.695 182.566 L 221.986 182.566 C 220.6 182.566 219.476 181.443 219.476 180.058 L 219.476 175.042 C 219.476 173.657 220.6 172.534 221.986 172.534 L 245.695 172.534 C 247.081 172.534 248.204 173.657 248.204 175.042 L 248.204 180.058 C 248.204 181.443 247.081 182.566 245.695 182.566 Z  M 339.728 182.566 L 316.019 182.566 C 314.633 182.566 313.509 181.443 313.509 180.058 L 313.509 175.042 C 313.509 173.657 314.633 172.534 316.019 172.534 L 339.728 172.534 C 341.114 172.534 342.237 173.657 342.237 175.042 L 342.237 180.058 C 342.237 181.443 341.114 182.566 339.728 182.566 Z " fill-rule="evenodd" fill="rgb(105,111,117)"/><path d=" M 211.962 177.703 C 211.962 181.636 208.772 184.824 204.837 184.824 C 200.901 184.824 197.712 181.636 197.712 177.703 C 197.712 173.77 200.901 170.582 204.837 170.582 C 208.772 170.582 211.962 173.77 211.962 177.703 Z " fill-rule="evenodd" fill="rgb(250,166,26)"/><path d=" M 306.337 177.703 C 306.337 179.359 304.994 180.701 303.337 180.701 C 301.68 180.701 300.337 179.359 300.337 177.703 C 300.337 176.047 301.68 174.705 303.337 174.705 C 304.994 174.705 306.337 176.047 306.337 177.703 Z " fill-rule="evenodd" fill="rgb(255,204,0)"/><path d=" M 530.418 231.087 L 198.837 231.087 C 198.216 231.087 197.712 230.583 197.712 229.962 C 197.712 229.342 198.216 228.838 198.837 228.838 L 530.418 228.838 C 531.039 228.838 531.543 229.342 531.543 229.962 C 531.543 230.583 531.039 231.087 530.418 231.087 Z  M 274.195 217.797 L 221.986 217.797 C 220.6 217.797 219.476 216.674 219.476 215.289 L 219.476 210.273 C 219.476 208.888 220.6 207.765 221.986 207.765 L 274.195 207.765 C 275.581 207.765 276.704 208.888 276.704 210.273 L 276.704 215.289 C 276.704 216.674 275.581 217.797 274.195 217.797 Z  M 339.728 217.797 L 316.019 217.797 C 314.633 217.797 313.509 216.674 313.509 215.289 L 313.509 210.273 C 313.509 208.888 314.633 207.765 316.019 207.765 L 339.728 207.765 C 341.114 207.765 342.237 208.888 342.237 210.273 L 342.237 215.289 C 342.237 216.674 341.114 217.797 339.728 217.797 Z  M 402.955 217.797 L 349.246 217.797 C 347.86 217.797 346.737 216.674 346.737 215.289 L 346.737 210.273 C 346.737 208.888 347.86 207.765 349.246 207.765 L 402.955 207.765 C 404.341 207.765 405.465 208.888 405.465 210.273 L 405.465 215.289 C 405.465 216.674 404.341 217.797 402.955 217.797 Z  M 421.183 217.797 L 412.474 217.797 C 411.088 217.797 409.965 216.674 409.965 215.289 L 409.965 210.273 C 409.965 208.888 411.088 207.765 412.474 207.765 L 421.183 207.765 C 422.569 207.765 423.693 208.888 423.693 210.273 L 423.693 215.289 C 423.693 216.674 422.569 217.797 421.183 217.797 Z " fill-rule="evenodd" fill="rgb(105,111,117)"/><path d=" M 211.962 212.934 C 211.962 216.867 208.772 220.055 204.837 220.055 C 200.901 220.055 197.712 216.867 197.712 212.934 C 197.712 209.001 200.901 205.813 204.837 205.813 C 208.772 205.813 211.962 209.001 211.962 212.934" fill-rule="evenodd" fill="rgb(230,235,244)"/><path d=" M 306.337 212.934 C 306.337 214.59 304.994 215.933 303.337 215.933 C 301.68 215.933 300.337 214.59 300.337 212.934 C 300.337 211.278 301.68 209.936 303.337 209.936 C 304.994 209.936 306.337 211.278 306.337 212.934 Z " fill-rule="evenodd" fill="rgb(67,181,129)"/><path d=" M 530.418 266.318 L 198.837 266.318 C 198.216 266.318 197.712 265.814 197.712 265.194 C 197.712 264.573 198.216 264.069 198.837 264.069 L 530.418 264.069 C 531.039 264.069 531.543 264.573 531.543 265.194 C 531.543 265.814 531.039 266.318 530.418 266.318 Z  M 256.195 253.028 L 221.986 253.028 C 220.6 253.028 219.476 251.905 219.476 250.52 L 219.476 245.505 C 219.476 244.119 220.6 242.996 221.986 242.996 L 256.195 242.996 C 257.581 242.996 258.704 244.119 258.704 245.505 L 258.704 250.52 C 258.704 251.905 257.581 253.028 256.195 253.028 Z  M 339.728 253.028 L 316.019 253.028 C 314.633 253.028 313.509 251.905 313.509 250.52 L 313.509 245.505 C 313.509 244.119 314.633 242.996 316.019 242.996 L 339.728 242.996 C 341.114 242.996 342.237 244.119 342.237 245.505 L 342.237 250.52 C 342.237 251.905 341.114 253.028 339.728 253.028 Z " fill-rule="evenodd" fill="rgb(105,111,117)"/><path d=" M 211.962 248.166 C 211.962 252.099 208.772 255.287 204.837 255.287 C 200.901 255.287 197.712 252.099 197.712 248.166 C 197.712 244.232 200.901 241.044 204.837 241.044 C 208.772 241.044 211.962 244.232 211.962 248.166 Z " fill-rule="evenodd" fill="rgb(250,166,26)"/><path d=" M 306.337 248.166 C 306.337 249.821 304.994 251.164 303.337 251.164 C 301.68 251.164 300.337 249.821 300.337 248.166 C 300.337 246.51 301.68 245.167 303.337 245.167 C 304.994 245.167 306.337 246.51 306.337 248.166 Z  M 530.418 299.3 L 198.837 299.3 C 198.216 299.3 197.712 298.797 197.712 298.176 C 197.712 297.555 198.216 297.052 198.837 297.052 L 530.418 297.052 C 531.039 297.052 531.543 297.555 531.543 298.176 C 531.543 298.797 531.039 299.3 530.418 299.3 Z  M 267.445 286.011 L 221.986 286.011 C 220.6 286.011 219.476 284.888 219.476 283.503 L 219.476 278.487 C 219.476 277.102 220.6 275.979 221.986 275.979 L 267.445 275.979 C 268.831 275.979 269.954 277.102 269.954 278.487 L 269.954 283.503 C 269.954 284.888 268.831 286.011 267.445 286.011 Z  M 339.728 286.011 L 316.019 286.011 C 314.633 286.011 313.509 284.888 313.509 283.503 L 313.509 278.487 C 313.509 277.102 314.633 275.979 316.019 275.979 L 339.728 275.979 C 341.114 275.979 342.237 277.102 342.237 278.487 L 342.237 283.503 C 342.237 284.888 341.114 286.011 339.728 286.011 Z " fill-rule="evenodd" fill="rgb(105,111,117)"/><path d=" M 211.962 281.148 C 211.962 285.081 208.772 288.269 204.837 288.269 C 200.901 288.269 197.712 285.081 197.712 281.148 C 197.712 277.215 200.901 274.027 204.837 274.027 C 208.772 274.027 211.962 277.215 211.962 281.148 Z " fill-rule="evenodd" fill="rgb(90,200,250)"/><path d=" M 306.337 281.148 C 306.337 282.804 304.994 284.146 303.337 284.146 C 301.68 284.146 300.337 282.804 300.337 281.148 C 300.337 279.492 301.68 278.15 303.337 278.15 C 304.994 278.15 306.337 279.492 306.337 281.148 Z " fill-rule="evenodd" fill="rgb(255,204,0)"/><path d=" M 76.126 49.09 C 76.126 53.023 72.936 56.211 69.001 56.211 C 65.066 56.211 61.876 53.023 61.876 49.09 C 61.876 45.157 65.066 41.969 69.001 41.969 C 72.936 41.969 76.126 45.157 76.126 49.09 Z " fill-rule="evenodd" fill="rgb(85,90,97)"/><path d=" M 1.732 26.24 L 4.242 26.24 C 5.627 26.24 6.751 27.363 6.751 28.749 L 6.751 42.542 C 6.751 43.927 5.627 45.049 4.242 45.049 L 1.732 45.049 L 1.732 26.24 Z " fill-rule="evenodd" fill="rgb(135,139,151)"/><path d=" M 33.072 50.692 L 18.017 50.692 C 13.86 50.692 10.489 47.324 10.489 43.169 L 10.489 28.121 C 10.489 23.966 13.86 20.597 18.017 20.597 L 33.072 20.597 C 37.23 20.597 40.6 23.966 40.6 28.121 L 40.6 43.169 C 40.6 47.324 37.23 50.692 33.072 50.692 Z " fill-rule="evenodd" fill="rgb(115,139,215)"/><path d=" M 124.859 101.318 L 86.15 101.318 C 84.764 101.318 83.641 100.195 83.641 98.809 L 83.641 93.794 C 83.641 92.409 84.764 91.286 86.15 91.286 L 124.859 91.286 C 126.245 91.286 127.369 92.409 127.369 93.794 L 127.369 98.809 C 127.369 100.195 126.245 101.318 124.859 101.318 Z " fill-rule="evenodd" fill="rgb(85,90,97)"/><path d=" M 76.126 96.455 C 76.126 100.388 72.936 103.576 69.001 103.576 C 65.066 103.576 61.876 100.388 61.876 96.455 C 61.876 92.522 65.066 89.334 69.001 89.334 C 72.936 89.334 76.126 92.522 76.126 96.455 Z " fill-rule="evenodd" fill="rgb(250,166,26)"/><path d=" M 76.126 101.327 C 76.126 102.569 75.119 103.576 73.876 103.576 C 72.633 103.576 71.626 102.569 71.626 101.327 C 71.626 100.085 72.633 99.078 73.876 99.078 C 75.119 99.078 76.126 100.085 76.126 101.327 Z " fill-rule="evenodd" fill="rgb(67,181,129)"/><path d=" M 124.859 122.306 L 86.15 122.306 C 84.764 122.306 83.641 121.184 83.641 119.798 L 83.641 114.783 C 83.641 113.397 84.764 112.275 86.15 112.275 L 124.859 112.275 C 126.245 112.275 127.369 113.397 127.369 114.783 L 127.369 119.798 C 127.369 121.184 126.245 122.306 124.859 122.306 Z " fill-rule="evenodd" fill="rgb(85,90,97)"/><path d=" M 76.126 117.444 C 76.126 121.377 72.936 124.565 69.001 124.565 C 65.066 124.565 61.876 121.377 61.876 117.444 C 61.876 113.511 65.066 110.322 69.001 110.322 C 72.936 110.322 76.126 113.511 76.126 117.444 Z " fill-rule="evenodd" fill="rgb(90,200,250)"/><path d=" M 76.126 122.316 C 76.126 123.558 75.119 124.565 73.876 124.565 C 72.633 124.565 71.626 123.558 71.626 122.316 C 71.626 121.074 72.633 120.067 73.876 120.067 C 75.119 120.067 76.126 121.074 76.126 122.316 Z " fill-rule="evenodd" fill="rgb(67,181,129)"/><path d=" M 1.5 308.837 L 546.009 308.837 L 546.009 1.5 L 1.5 1.5 L 1.5 308.837 Z " fill-rule="evenodd" fill="none" vector-effect="non-scaling-stroke" stroke-width="3" stroke="rgb(26,28,30)" stroke-linejoin="round" stroke-linecap="round" stroke-miterlimit="4"/></g></g></svg>